<svg width="259" height="258" viewBox="0 0 259 258" fill="none" xmlns="http://www.w3.org/2000/svg">
<mask id="mask0_7_5" style="mask-type:alpha" maskUnits="userSpaceOnUse" x="0" y="0" width="259" height="258">
<rect width="259" height="258" fill="#D9D9D9"/>
</mask>
<g mask="url(#mask0_7_5)">
<path d="M71.5 0.5C64.1316 1.38155 57.0532 4.12362 50.343 7.44874C39.0527 13.1829 28.5812 20.7312 19.9065 30.5129C15.6218 35.4761 11.6888 41.0121 9.52806 47.9868C7.19208 54.7314 8.33698 64.3877 14.042 70.2753C48.271 99.7267 86.9935 113.131 124.399 131.396C166.284 152.836 223.496 168.834 243.675 203.192C243.732 218.516 231.229 231.913 217.131 240.636C210.98 244.502 204.346 247.815 197.5 250.5C204.667 248.831 211.778 246.435 218.579 243.309C233.886 236.314 250.302 223.67 252.496 203.808C251.819 186.135 238.762 178.926 229.351 170.733C219.13 162.964 208.418 156.414 197.591 150.226C175.913 137.929 153.494 127.191 131.085 116.86C94.0621 99.0216 52.7521 85.1859 21.958 62.7247C14.9066 57.0638 18.8906 44.4935 25.7521 35.1247C32.6193 25.47 41.7476 16.9842 51.8748 10.0746C57.9202 6.03274 64.3549 2.43196 71.5 0.5Z" fill="white"/>
<mask id="mask1_7_5" style="mask-type:alpha" maskUnits="userSpaceOnUse" x="-126" y="-150" width="548" height="574">
<rect x="-25.0636" y="67" width="354" height="215" transform="rotate(28 -25.0636 67)" fill="#D9D9D9"/>
<rect x="108.936" y="-150" width="354" height="215" transform="rotate(28 108.936 -150)" fill="#D9D9D9"/>
</mask>
<g mask="url(#mask1_7_5)">
<circle cx="130" cy="129" r="118" stroke="white" stroke-width="20"/>
</g>
</g>
</svg>
